<svg width="113" height="29" viewBox="0 0 113 29" fill="none" xmlns="http://www.w3.org/2000/svg">
<path d="M11.8054 1.17146V4.47426C10.8634 4.01504 10.0745 3.78544 9.43867 3.78544C8.56735 3.78544 7.81966 4.00327 7.1956 4.43893C6.57154 4.86282 6.05346 5.5222 5.64134 6.41708C5.24101 7.31195 4.94075 8.44821 4.74058 9.82584C4.55219 11.1917 4.45799 12.8107 4.45799 14.6829C4.45799 21.418 6.18298 24.7856 9.63296 24.7856C10.2335 24.7856 10.9576 24.5972 11.8054 24.2204V27.5938C10.9223 28.0884 9.93321 28.3356 8.83817 28.3356C3.31585 28.3356 0.554688 23.8259 0.554688 14.8065C0.554688 9.93181 1.22584 6.30522 2.56816 3.92673C3.92224 1.54825 5.9887 0.359009 8.76752 0.359009C9.79191 0.359009 10.8045 0.629826 11.8054 1.17146Z" fill="#636AF2"/>
<path d="M19.8239 0.729911H22.6852L28.5313 28H24.8929L23.8685 22.6838H18.464L17.4219 28H13.8895L19.8239 0.729911ZM23.3387 19.8402L22.5262 15.4953C21.9846 12.5399 21.543 9.38429 21.2016 6.02851C21.0367 7.66519 20.8248 9.32542 20.5657 11.0092C20.3067 12.6812 20.0006 14.4592 19.6473 16.3431L18.9762 19.8402H23.3387Z" fill="#636AF2"/>
<path d="M27.9308 0.729911H39.888V3.9444H35.7727V28H32.1697V3.9444H27.9308V0.729911Z" fill="#636AF2"/>
<path d="M51.8098 1.29509V4.88048C50.6912 4.0798 49.6845 3.67947 48.7896 3.67947C47.8241 3.67947 47.0352 4.02093 46.4229 4.70386C45.8106 5.35147 45.5045 6.21691 45.5045 7.30018C45.5045 8.25392 45.7223 9.07226 46.158 9.75519C46.3817 10.1202 46.7467 10.5912 47.253 11.1682C47.7711 11.7451 48.4364 12.4398 49.2488 13.2523C50.7442 14.7712 51.7627 16.0841 52.3044 17.1909C52.846 18.2624 53.1168 19.5753 53.1168 21.1295C53.1168 23.2372 52.5222 24.974 51.3329 26.3398C50.1437 27.6704 48.6189 28.3356 46.7585 28.3356C45.1925 28.3356 43.856 27.9058 42.7492 27.0463V23.4079C44.0562 24.3617 45.2454 24.8385 46.3169 24.8385C47.3178 24.8385 48.1008 24.5089 48.666 23.8495C49.2312 23.1783 49.5138 22.2717 49.5138 21.1295C49.5138 20.1404 49.2959 19.2515 48.8603 18.4626C48.6365 18.0858 48.3245 17.656 47.9242 17.1732C47.5238 16.6787 47.0234 16.1312 46.4229 15.5307C45.4927 14.6122 44.7215 13.7998 44.1092 13.0933C43.4969 12.3868 43.0436 11.7687 42.7492 11.2388C42.184 10.2026 41.9014 8.89564 41.9014 7.31784C41.9014 5.18662 42.4548 3.49696 43.5617 2.24884C44.6803 0.988953 46.1815 0.359009 48.0655 0.359009C49.3725 0.359009 50.6206 0.671037 51.8098 1.29509Z" fill="#636AF2"/>
<path d="M57.9032 23.9025C58.4802 23.9025 58.9806 24.1203 59.4045 24.556C59.8284 24.9798 60.0403 25.492 60.0403 26.0925C60.0403 26.6931 59.8284 27.2053 59.4045 27.6291C58.957 28.0413 58.4448 28.2473 57.8679 28.2473C57.5617 28.2473 57.2733 28.1884 57.0024 28.0707C56.7434 27.9647 56.5138 27.8175 56.3136 27.6291C56.1135 27.429 55.9545 27.1994 55.8368 26.9403C55.7308 26.6695 55.6778 26.381 55.6778 26.0749C55.6778 25.4744 55.8897 24.9622 56.3136 24.5383C56.7493 24.1144 57.2791 23.9025 57.9032 23.9025Z" fill="#636AF2"/>
<path d="M74.3995 1.17146V4.47426C73.4576 4.01504 72.6686 3.78544 72.0328 3.78544C71.1615 3.78544 70.4138 4.00327 69.7897 4.43893C69.1657 4.86282 68.6476 5.5222 68.2355 6.41708C67.8351 7.31195 67.5349 8.44821 67.3347 9.82584C67.1463 11.1917 67.0521 12.8107 67.0521 14.6829C67.0521 21.418 68.7771 24.7856 72.2271 24.7856C72.8276 24.7856 73.5517 24.5972 74.3995 24.2204V27.5938C73.5164 28.0884 72.5274 28.3356 71.4323 28.3356C65.91 28.3356 63.1488 23.8259 63.1488 14.8065C63.1488 9.93181 63.82 6.30522 65.1623 3.92673C66.5164 1.54825 68.5828 0.359009 71.3617 0.359009C72.3861 0.359009 73.3987 0.629826 74.3995 1.17146Z" fill="#636AF2"/>
<path d="M90.9488 15.0361C90.9488 19.852 90.4131 23.2725 89.3416 25.2978C88.2701 27.323 86.4744 28.3356 83.9547 28.3356C81.3054 28.3356 79.4391 27.2465 78.3558 25.0681C77.2843 22.9369 76.7486 19.1514 76.7486 13.7115C76.7486 8.86032 77.2784 5.428 78.3381 3.41454C79.4096 1.38929 81.2229 0.376671 83.778 0.376671C86.0623 0.376671 87.7579 1.15969 88.8647 2.72572C89.5947 3.77366 90.1246 5.26316 90.4543 7.1942C90.784 8.98395 90.9488 11.5979 90.9488 15.0361ZM87.0985 15.4247C87.0985 10.7031 86.8866 7.57099 86.4627 6.02851C86.0388 4.47426 85.1733 3.69713 83.8664 3.69713C82.5594 3.69713 81.688 4.40949 81.2524 5.83423C80.8285 7.27074 80.6165 10.1555 80.6165 14.4886C80.6165 18.4802 80.8403 21.2473 81.2877 22.7898C81.7469 24.2498 82.6065 24.9798 83.8664 24.9798C85.1027 24.9798 85.9505 24.2969 86.4097 22.931C86.8689 21.577 87.0985 19.0748 87.0985 15.4247Z" fill="#636AF2"/>
<path d="M95.8942 0.729911H99.038L101.44 11.857C101.734 13.2464 101.999 14.6417 102.235 16.0429C102.482 17.4323 102.706 18.8923 102.906 20.423C102.93 20.2229 102.947 20.0698 102.959 19.9638C102.971 19.8461 102.983 19.7637 102.994 19.7166L103.507 16.5904L103.966 13.6232L104.372 11.6627L106.509 0.729911H109.688L112.196 28H108.681L108.063 18.7452C108.04 18.2742 108.016 17.8679 107.993 17.5265C107.981 17.185 107.975 16.9024 107.975 16.6787L107.816 13.0227L107.728 9.66688C107.728 9.64333 107.722 9.59624 107.71 9.52559C107.71 9.44317 107.704 9.33719 107.692 9.20767L107.604 9.75519C107.51 10.4028 107.422 10.968 107.339 11.4507C107.269 11.9335 107.204 12.3397 107.145 12.6694L106.686 15.1598L106.509 16.0959L104.213 28H101.74L99.5855 17.7208C99.2912 16.3667 99.0262 14.9949 98.7907 13.6055C98.567 12.2043 98.361 10.7384 98.1726 9.20767L97.1129 28H93.6511L95.8942 0.729911Z" fill="#636AF2"/>
</svg>
